<mxfile host="app.diagrams.net" modified="2022-02-03T15:35:14.841Z" agent="5.0 (Windows NT 10.0; Win64; x64) AppleWebKit/537.36 (KHTML, like Gecko) Chrome/97.0.4692.99 Safari/537.36" etag="Nk1cvUhP7qReQLLoeZWJ" version="16.5.3" type="github">
  <diagram id="R2lEEEUBdFMjLlhIrx00" name="Page-1">
    <mxGraphModel dx="782" dy="444" grid="1" gridSize="10" guides="1" tooltips="1" connect="1" arrows="1" fold="1" page="1" pageScale="1" pageWidth="850" pageHeight="1100" math="0" shadow="0" extFonts="Permanent Marker^https://fonts.googleapis.com/css?family=Permanent+Marker">
      <root>
        <mxCell id="0" />
        <mxCell id="1" parent="0" />
        <mxCell id="a_Qwg4SH3QDEqXMWtHfw-1" value="&lt;font style=&quot;font-size: 16px&quot;&gt;Alumno&lt;/font&gt;" style="rounded=0;whiteSpace=wrap;html=1;" vertex="1" parent="1">
          <mxGeometry x="20" y="170" width="120" height="60" as="geometry" />
        </mxCell>
        <mxCell id="a_Qwg4SH3QDEqXMWtHfw-3" value="Control Escolar" style="text;html=1;strokeColor=none;fillColor=none;align=center;verticalAlign=middle;whiteSpace=wrap;rounded=0;fontSize=24;" vertex="1" parent="1">
          <mxGeometry x="305" y="20" width="190" height="30" as="geometry" />
        </mxCell>
        <mxCell id="a_Qwg4SH3QDEqXMWtHfw-4" value="&lt;font style=&quot;font-size: 16px&quot;&gt;Materia&lt;br&gt;&lt;/font&gt;" style="rounded=0;whiteSpace=wrap;html=1;" vertex="1" parent="1">
          <mxGeometry x="330" y="170" width="120" height="60" as="geometry" />
        </mxCell>
        <mxCell id="a_Qwg4SH3QDEqXMWtHfw-5" value="&lt;font style=&quot;font-size: 16px&quot;&gt;Profesor&lt;/font&gt;" style="rounded=0;whiteSpace=wrap;html=1;" vertex="1" parent="1">
          <mxGeometry x="620" y="170" width="120" height="60" as="geometry" />
        </mxCell>
        <mxCell id="a_Qwg4SH3QDEqXMWtHfw-6" value="&lt;font style=&quot;font-size: 16px&quot;&gt;Personal&lt;br&gt;Administrativo&lt;/font&gt;" style="rounded=0;whiteSpace=wrap;html=1;" vertex="1" parent="1">
          <mxGeometry x="50" y="400" width="120" height="60" as="geometry" />
        </mxCell>
        <mxCell id="a_Qwg4SH3QDEqXMWtHfw-7" value="id" style="ellipse;whiteSpace=wrap;html=1;fontSize=16;labelBackgroundColor=default;fillColor=#FF1F1F;" vertex="1" parent="1">
          <mxGeometry x="10" y="70" width="50" height="40" as="geometry" />
        </mxCell>
        <mxCell id="a_Qwg4SH3QDEqXMWtHfw-8" value="id" style="ellipse;whiteSpace=wrap;html=1;fontSize=16;labelBackgroundColor=default;fillColor=#FF1F1F;" vertex="1" parent="1">
          <mxGeometry x="280" y="70" width="50" height="40" as="geometry" />
        </mxCell>
        <mxCell id="a_Qwg4SH3QDEqXMWtHfw-9" value="id" style="ellipse;whiteSpace=wrap;html=1;fontSize=16;labelBackgroundColor=default;fillColor=#FF1F1F;" vertex="1" parent="1">
          <mxGeometry x="570" y="70" width="50" height="40" as="geometry" />
        </mxCell>
        <mxCell id="a_Qwg4SH3QDEqXMWtHfw-10" value="id" style="ellipse;whiteSpace=wrap;html=1;fontSize=16;labelBackgroundColor=default;fillColor=#FF1F1F;" vertex="1" parent="1">
          <mxGeometry x="10" y="330" width="50" height="40" as="geometry" />
        </mxCell>
        <mxCell id="a_Qwg4SH3QDEqXMWtHfw-12" value="" style="endArrow=classic;startArrow=classic;html=1;rounded=0;fontSize=16;entryX=1;entryY=0.5;entryDx=0;entryDy=0;exitX=0;exitY=0.5;exitDx=0;exitDy=0;" edge="1" parent="1" source="a_Qwg4SH3QDEqXMWtHfw-4" target="a_Qwg4SH3QDEqXMWtHfw-1">
          <mxGeometry width="50" height="50" relative="1" as="geometry">
            <mxPoint x="270" y="180" as="sourcePoint" />
            <mxPoint x="210" y="180" as="targetPoint" />
            <Array as="points">
              <mxPoint x="250" y="200" />
            </Array>
          </mxGeometry>
        </mxCell>
      </root>
    </mxGraphModel>
  </diagram>
</mxfile>
